<svg width="63" height="61" viewBox="0 0 63 61" fill="none" xmlns="http://www.w3.org/2000/svg">
<path d="M53.0615 40.6866L60.402 34.3081L35.0841 5.17198L27.0637 4.6096L4.13879 24.5303C4.13879 24.5303 21.8422 44.9035 33.1857 57.9578L39.171 52.7568" stroke="white" stroke-width="2.39376"/>
<path d="M37.3335 42.6592L29.2867 33.3989L36.4013 27.2166L44.4481 36.477L47.7231 33.6311L46.737 46.1819L34.2843 45.3088L37.3335 42.6592Z" fill="white" stroke="white" stroke-width="2.39376"/>
<rect x="5.33813" y="32.9818" width="21.2446" height="10.0387" transform="rotate(-40.9891 5.33813 32.9818)" fill="white"/>
<path d="M12.9171 31.6939C12.6935 31.4366 12.4658 31.3125 12.2341 31.3214C12.0046 31.3284 11.768 31.4379 11.5241 31.6498L10.561 32.4867L11.8266 33.9431L12.7897 33.1062C13.0335 32.8943 13.171 32.6707 13.2022 32.4355C13.2357 32.1984 13.1406 31.9512 12.9171 31.6939ZM13.9347 30.7978C14.4421 31.3817 14.6531 31.9228 14.5678 32.421C14.4824 32.9192 14.1657 33.4065 13.6176 33.8828L12.5672 34.7955L14.1127 36.574L13.0858 37.4663L8.78764 32.5199L10.942 30.6478C11.4387 30.2163 11.9455 29.9997 12.4624 29.9981C12.9793 29.9965 13.4701 30.2631 13.9347 30.7978ZM15.098 28.5442L17.9032 31.7725L18.8563 30.9443C19.344 30.5206 19.475 29.9846 19.2495 29.3364C19.1252 28.981 18.9047 28.621 18.5878 28.2564C18.1504 27.753 17.7356 27.4361 17.3435 27.3057C16.9517 27.171 16.5209 27.3078 16.0511 27.7161L15.098 28.5442ZM15.4791 26.7054C15.7894 26.4435 16.0756 26.2577 16.3375 26.1479C16.7834 25.9607 17.2459 25.9259 17.7251 26.0435C18.1112 26.1399 18.46 26.3041 18.7715 26.536C19.0829 26.7679 19.3514 27.0137 19.5769 27.2732C20.1485 27.9309 20.5005 28.6027 20.6331 29.2884C20.8098 30.2147 20.5245 31.0025 19.7773 31.6518L17.6463 33.5035L13.3481 28.557L15.4791 26.7054ZM18.3205 24.2481L21.8273 21.2008L22.5826 22.07L20.1026 24.2249L21.0912 25.3625L23.2624 23.4759L24.0089 24.3349L21.8377 26.2216L23.6398 28.2955L22.6129 29.1878L18.3205 24.2481Z" fill="black"/>
<path d="M26.3861 5.19836L30.2132 9.60266L35.408 5.08862" stroke="white" stroke-width="0.598439"/>
</svg>
