<svg width="241" height="275" viewBox="0 0 241 275" fill="none" xmlns="http://www.w3.org/2000/svg">
<circle cx="137.829" cy="111.043" r="10.6804" fill="black"/>
<ellipse cx="101.512" cy="121.281" rx="22.8866" ry="8.81559" transform="rotate(-37.4668 101.512 121.281)" fill="#010101"/>
<path d="M116.153 102.955C116.83 103.838 117.034 105.065 116.761 106.581C116.488 108.097 115.742 109.864 114.574 111.773C112.239 115.589 108.253 119.906 103.163 123.807C98.0734 127.707 92.8684 130.434 88.5769 131.698C86.43 132.33 84.5295 132.59 82.9947 132.459C81.4601 132.329 80.3285 131.813 79.6517 130.93C78.9748 130.046 78.7705 128.82 79.0435 127.304C79.3166 125.788 80.0619 124.02 81.2302 122.112C83.5654 118.296 87.5517 113.979 92.6413 110.078C97.7309 106.177 102.936 103.45 107.227 102.187C109.374 101.555 111.275 101.295 112.81 101.425C114.344 101.556 115.476 102.072 116.153 102.955Z" fill="#E5E5E5" stroke="black" stroke-width="0.678122"/>
<ellipse cx="162.561" cy="92.3388" rx="10.2442" ry="7.96794" transform="rotate(-25.8987 162.561 92.3388)" fill="black"/>
<ellipse cx="160.163" cy="39.9902" rx="30.0063" ry="31.5688" transform="rotate(66.8865 160.163 39.9902)" fill="black"/>
<path d="M55.0977 104.601C55.0977 104.601 95.7077 147.238 121.723 213.609M153.425 248.023C158.172 222.989 180.143 174.718 230.053 181.906M64.9304 72.5592C123.008 54.5249 157.648 48.3832 223.272 44.7562" stroke="black" stroke-width="0.339061"/>
<ellipse cx="192.45" cy="206.731" rx="13.4281" ry="36.3218" transform="rotate(-42.5271 192.45 206.731)" fill="url(#paint0_linear_1129_57)"/>
<ellipse cx="208.094" cy="134.538" rx="15.9359" ry="18.1398" transform="rotate(18.8046 208.094 134.538)" fill="url(#paint1_radial_1129_57)"/>
<ellipse cx="122.62" cy="228.029" rx="35.6244" ry="36.1738" transform="rotate(-22.2533 122.62 228.029)" fill="#070707"/>
<path d="M52.3826 101.653C47.7836 107.065 41.8423 110.618 35.4161 111.798C28.9899 112.978 22.4113 111.724 16.6297 108.219C10.8482 104.713 6.16278 99.1357 3.24977 92.2924C0.336764 85.4492 -0.653172 77.6937 0.422846 70.1454C1.49886 62.597 4.58518 55.6462 9.23633 50.2962C13.8875 44.9462 19.8629 41.4737 26.3001 40.38C32.7373 39.2863 39.3034 40.6278 45.0505 44.211C50.7977 47.7942 55.4288 53.4338 58.2753 60.3157L30.685 76.1194L52.3826 101.653Z" fill="#070707"/>
<ellipse cx="81.3747" cy="95.1068" rx="7.45935" ry="6.95075" fill="black"/>
<path d="M61.8789 58.9968C128.551 24.1278 161.093 8.02771 231.058 1.31226M80.3577 78.8318C100.588 79.2274 152.103 84.5619 196.317 102.736" stroke="black" stroke-width="0.339061"/>
<circle cx="135.116" cy="109.008" r="6.78122" fill="#E5E5E5" stroke="black" stroke-width="0.339061"/>
<ellipse cx="219.687" cy="73.1772" rx="10.878" ry="24.4727" transform="rotate(-27.6641 219.687 73.1772)" fill="black"/>
<ellipse cx="163.382" cy="145.787" rx="8.5325" ry="18.6319" transform="rotate(59.3929 163.382 145.787)" fill="black"/>
<defs>
<linearGradient id="paint0_linear_1129_57" x1="192.45" y1="170.409" x2="192.45" y2="243.053" gradientUnits="userSpaceOnUse">
<stop offset="0.015625" stop-color="#737373"/>
<stop offset="0.208333" stop-color="#C0ADA1"/>
<stop offset="0.369792" stop-color="#92857D"/>
<stop offset="1" stop-color="#2D2D2D"/>
</linearGradient>
<radialGradient id="paint1_radial_1129_57" cx="0" cy="0" r="1" gradientUnits="userSpaceOnUse" gradientTransform="translate(212.394 127.954) rotate(99.8653) scale(25.0949 22.046)">
<stop stop-color="#AA9D90"/>
<stop offset="0.239583" stop-color="#A98C74"/>
<stop offset="0.489583" stop-color="#CE6F23" stop-opacity="0.51"/>
<stop offset="1" stop-opacity="0.77"/>
</radialGradient>
</defs>
</svg>
